<svg>
  <symbol id="menu-svg" width="23" height="23" viewBox="0 0 23 23" fill="none"
    xmlns="http://www.w3.org/2000/svg">
    <path opacity="0.4" d="M15.5164 1.91667H7.48458C4.57125 1.91667 2.875 3.62251 2.875 6.54542V16.445C2.875 19.4158 4.57125 21.0833 7.48458 21.0833H15.5164C18.4767 21.0833 20.125 19.4158 20.125 16.445V6.54542C20.125 3.62251 18.4767 1.91667 15.5164 1.91667Z" fill="#9796A1"/>
    <path fill-rule="evenodd" clip-rule="evenodd" d="M7.74302 6.37277V6.38236C7.32998 6.38236 6.99552 6.71777 6.99552 7.12986C6.99552 7.54194 7.32998 7.87736 7.74302 7.87736H10.6075C11.0205 7.87736 11.3559 7.54194 11.3559 7.11931C11.3559 6.70819 11.0205 6.37277 10.6075 6.37277H7.74302ZM15.2564 12.2091H7.74302C7.32998 12.2091 6.99552 11.8737 6.99552 11.4616C6.99552 11.0495 7.32998 10.7131 7.74302 10.7131H15.2564C15.6684 10.7131 16.0039 11.0495 16.0039 11.4616C16.0039 11.8737 15.6684 12.2091 15.2564 12.2091ZM15.2565 16.5886H7.74317C7.45567 16.6269 7.17776 16.4831 7.02442 16.2436C6.87109 15.9944 6.87109 15.6781 7.02442 15.4386C7.17776 15.1894 7.45567 15.0552 7.74317 15.084H15.2565C15.6389 15.1223 15.9273 15.4481 15.9273 15.8411C15.9273 16.2234 15.6389 16.5502 15.2565 16.5886Z" fill="#9796A1"/>
  </symbol>

  <symbol id="basket-svg" width="23" height="23" viewBox="0 0 23 23" fill="none"
    xmlns="http://www.w3.org/2000/svg">
    <path d="M18.7526 10.5968C18.6738 9.91663 18.3484 9.2855 17.8345 8.8158C17.3206 8.34609 16.6515 8.06825 15.946 8.0316V7.83165C15.9466 7.26273 15.8312 6.69936 15.6063 6.17378C15.3815 5.6482 15.0517 5.1708 14.6359 4.76911C14.2209 4.36621 13.7278 4.04672 13.1851 3.82892C12.6423 3.61113 12.0605 3.49934 11.473 3.5C10.2871 3.50042 9.14992 3.95699 8.31135 4.7694C7.47278 5.58181 7.00151 6.6836 7.00107 7.83252V8.03469C6.30495 8.08262 5.64802 8.36536 5.1447 8.83371C4.64137 9.30206 4.32348 9.92645 4.24599 10.5984L3.5 17.182C3.50368 18.0648 3.8688 18.91 4.51524 19.5321C5.16168 20.1542 6.03674 20.5023 6.9479 20.5H16.0523C16.9635 20.5023 17.8383 20.1542 18.4848 19.5321C19.1312 18.91 19.4963 18.0648 19.5 17.182L18.7526 10.5968ZM8.31435 7.83959C8.31424 7.43776 8.39577 7.03984 8.55442 6.66856C8.71307 6.29729 8.94579 5.95997 9.23904 5.6758C9.53229 5.39162 9.88029 5.16614 10.2635 5.01234C10.6467 4.85854 11.0574 4.77947 11.4722 4.77947C11.8871 4.77909 12.2979 4.85804 12.6812 5.01186C13.0644 5.16567 13.4127 5.39122 13.7058 5.6757C13.9996 5.95956 14.2325 6.29684 14.3914 6.66818C14.5503 7.03951 14.632 7.43761 14.6317 7.83959V8.02521H8.31435V7.83959ZM8.93741 12.3403C8.83319 12.3404 8.72988 12.3206 8.63358 12.282C8.53727 12.2434 8.44981 12.1868 8.37612 12.1154C8.30243 12.044 8.24404 11.9592 8.20421 11.8659C8.16438 11.7726 8.14394 11.6726 8.14405 11.5717C8.14394 11.4707 8.16438 11.3707 8.20421 11.2774C8.24404 11.1841 8.30243 11.0993 8.37612 11.0279C8.44981 10.9565 8.53727 10.8999 8.63358 10.8614C8.72988 10.8228 8.83319 10.803 8.93741 10.8031C9.04177 10.8029 9.14515 10.8225 9.24164 10.8611C9.33813 10.8996 9.42579 10.9561 9.4997 11.0275C9.57361 11.0989 9.63234 11.1837 9.67241 11.277C9.71247 11.3704 9.73306 11.4706 9.73317 11.5717C9.73306 11.6728 9.71247 11.7729 9.67241 11.8662C9.63234 11.9596 9.57361 12.0444 9.4997 12.1158C9.42579 12.1871 9.33813 12.2437 9.24164 12.2822C9.14515 12.3207 9.04177 12.3405 8.93741 12.3403ZM14.0644 12.3403C13.96 12.3405 13.8566 12.3207 13.7602 12.2822C13.6637 12.2437 13.576 12.1871 13.5021 12.1158C13.4282 12.0444 13.3695 11.9596 13.3294 11.8662C13.2893 11.7729 13.2687 11.6728 13.2686 11.5717C13.2687 11.4706 13.2893 11.3704 13.3294 11.277C13.3695 11.1837 13.4282 11.0989 13.5021 11.0275C13.576 10.9561 13.6637 10.8996 13.7602 10.8611C13.8566 10.8225 13.96 10.8029 14.0644 10.8031C14.1686 10.803 14.2717 10.8228 14.368 10.8614C14.4643 10.8999 14.552 10.9565 14.6257 11.0279C14.6994 11.0993 14.7578 11.1841 14.7976 11.2774C14.8374 11.3707 14.8579 11.4707 14.8578 11.5717C14.8579 11.6726 14.8374 11.7726 14.7976 11.8659C14.7578 11.9592 14.6994 12.044 14.6257 12.1154C14.552 12.1868 14.4643 12.2434 14.368 12.282C14.2717 12.3206 14.1686 12.3404 14.0644 12.3403Z" fill="#D5D5D9"/>
    <circle cx="8.5" cy="11.5" r="1.5" fill="#9796A1"/>
    <circle cx="13.5" cy="11.5" r="1.5" fill="#9796A1"/>
  </symbol>

  <symbol id="logout-svg" width="26" height="26" viewBox="0 0 26 26" fill="none"
    xmlns="http://www.w3.org/2000/svg">
    <circle id="svg_1" fill="white" r="13" cy="13" cx="13"/>
    <path id="svg_2" stroke-width="0.8" stroke="white" fill="#FE724C" d="m17.9708,7.28862l0,0.00001l-0.0019,-0.00219c-0.4014,-0.45362 -1.0648,-0.52829 -1.5334,-0.19101l-0.0004,0.00032c-0.4981,0.35744 -0.6671,1.02095 -0.3885,1.57265l0.0014,0.00273c0.0619,0.12486 0.1619,0.25191 0.2815,0.37138l0.0017,0.00178c1.4365,1.45391 2.0134,3.22921 1.5029,5.28511l0,0.0002c-0.4875,1.9598 -1.7425,3.262 -3.5897,3.8478l-0.0005,0.0001c-1.8007,0.5682 -3.4966,0.2053 -4.95005,-1.0164c-1.25281,-1.0504 -1.89442,-2.4643 -1.91647,-4.1294c-0.019,-1.3287 0.42682,-2.5037 1.24593,-3.50647c0.07127,-0.08781 0.15093,-0.15896 0.20831,-0.20976c0.00502,-0.00445 0.00988,-0.00875 0.01459,-0.01291c0.05635,-0.04984 0.0914,-0.08085 0.12174,-0.11433l-0.00002,-0.00002l0.003,-0.00323c0.32977,-0.35597 0.41809,-0.75952 0.27414,-1.23297c-0.14565,-0.46672 -0.45378,-0.73172 -0.91756,-0.82582c-0.3386,-0.06795 -0.64483,0.01665 -0.94663,0.259l-0.00121,0.00096c-0.60221,0.47978 -1.02482,1.12984 -1.41879,1.86534c-0.66202,1.23701 -0.96046,2.57251 -0.91295,3.99341l0.00001,0.0004c0.05589,1.7327 0.60434,3.2714 1.63891,4.6222c0.98223,1.2794 2.20862,2.1764 3.69245,2.6293l0.0003,0.0001c2.5324,0.7753 4.8726,0.3705 6.9924,-1.2893l0.0002,-0.0001c1.372,-1.0728 2.2739,-2.4983 2.7218,-4.2399l0.0005,-0.0017c0.1683,-0.6423 0.2414,-1.3036 0.2445,-1.9837c-0.0316,-2.1649 -0.7727,-4.00682 -2.2314,-5.5383l0.2896,-0.27587l-0.2888,0.2767c-0.0314,-0.03273 -0.0827,-0.09246 -0.1136,-0.12845c-0.0115,-0.01334 -0.0201,-0.02342 -0.024,-0.02766z"/>
    <path stroke="white" d="m10.34155,4.81173c0,0.03521 -0.01363,0.14122 0,0.38732c0.01763,0.31836 0.06795,0.66933 0.10563,0.9507c0.03305,0.24678 0.06001,0.45826 0.07042,0.56338c0.01769,0.17867 0.05232,0.38359 0.10563,0.66901c0.05213,0.27906 0.07042,0.49296 0.07042,0.6338c0,0.14085 0,0.21127 0,0.35211c0,0.10563 -0.00336,0.28089 -0.03521,0.42253c-0.03939,0.17517 -0.02069,0.35271 -0.03521,0.52817c-0.01767,0.21345 -0.03235,0.38775 -0.07042,0.6338c-0.03275,0.21166 -0.07288,0.45735 -0.10563,0.66901c-0.03807,0.24605 -0.08794,0.49034 -0.10563,0.66901c-0.02429,0.24528 0,0.42253 0,0.59859c0,0.14084 0,0.24648 0,0.3169l0,0.03521" id="svg_6" stroke-width="0.8" fill="none"/>
    <ellipse ry="2.55282" rx="0.3169" id="svg_7" cy="13.59694" cx="10.34155" fill-opacity="null" stroke-opacity="null" stroke-width="0.8" stroke="white" fill="none"/>
    <rect stroke="#fe724c" rx="0.5" id="svg_12" height="6.02113" width="0.70423" y="4.98779" x="12.34859" fill-opacity="null" stroke-opacity="null" stroke-width="0.8" fill="none"/>
    <rect id="svg_13" height="5.52817" width="0.03521" y="5.51595" x="15.2007" fill-opacity="null" stroke-opacity="null" stroke-width="0" stroke="#fe724c" fill="none"/>
    <rect id="svg_15" height="5.28169" width="0.17606" y="5.30469" x="12.59507" fill-opacity="null" stroke-opacity="null" stroke-width="0.8" stroke="#fe724c" fill="none"/>
  </symbol>

  <symbol id="user-svg" width="90" heihgt="90" viewBox="0 0 90 90" fill="none"
    xmlns="http://www.w3.org/2000/svg">
    <circle stroke="null" id="svg_7" fill="#DFE5E8" r="41.87526" cy="45" cx="45"/>
    <path stroke="null" id="svg_8" fill="#AEB6BA" d="m71.30719,75.26338l0,2.31704c-7.18934,5.81326 -16.34143,9.29474 -26.30739,9.29474c-9.96505,0 -19.11814,-3.48147 -26.30648,-9.29282l0,-2.31896c0,-12.51839 10.14821,-22.6675 22.66649,-22.6675l7.28087,0c12.51829,0 22.66649,10.14912 22.66649,22.6675z"/>
    <circle stroke="null" id="svg_9" fill="#AEB6BA" r="13.90942" cy="32.56092" cx="45"/>
  </symbol>

  <symbol id="search-svg" width="16" height="16" viewBox="0 0 16 16" fill="none"
    xmlns="http://www.w3.org/2000/svg">
    <path d="M11.0469 11.3999L14.4999 14.4999" stroke="#434B67" stroke-width="2" stroke-linecap="round" />
    <path d="M7 13C10.3137 13 13 10.3137 13 7C13 3.68629 10.3137 1 7 1C3.68629 1 1 3.68629 1 7C1 10.3137 3.68629 13 7 13Z" stroke="#767F9D" stroke-width="2" />
  </symbol>

  <symbol id="rate-svg" width="11" height="11" viewBox="0 0 11 11" fill="none"
    xmlns="http://www.w3.org/2000/svg">
    <path d="M8.75095 10.0934L5.58045 8.42735L2.40873 10.0934L3.01588 6.56221L0.447662 4.062L3.99338 3.54714L5.58045 0.285568L7.16752 3.54714L10.7132 4.062L8.14502 6.56343L8.75095 10.0934Z" fill="#FFC529" />
  </symbol>

  <symbol id="bag-svg" width="16" height="17" viewBox="0 0 16 17" fill="none"
    xmlns="http://www.w3.org/2000/svg">
    <path d="M15.2526 7.09683C15.1738 6.41663 14.8484 5.7855 14.3345 5.3158C13.8206 4.84609 13.1515 4.56825 12.446 4.5316V4.33165C12.4466 3.76273 12.3312 3.19936 12.1063 2.67378C11.8815 2.1482 11.5517 1.6708 11.1359 1.26911C10.7209 0.866206 10.2278 0.546718 9.68507 0.328924C9.1423 0.111129 8.5605 -0.000662074 7.97301 2.94969e-06C6.7871 0.000423414 5.64992 0.456995 4.81135 1.2694C3.97278 2.08181 3.50151 3.1836 3.50107 4.33252V4.53469C2.80495 4.58262 2.14802 4.86536 1.6447 5.33371C1.14137 5.80206 0.823478 6.42645 0.74599 7.09838L0 13.682C0.00368492 14.5648 0.368802 15.41 1.01524 16.0321C1.66168 16.6542 2.53674 17.0023 3.4479 17H12.5523C13.4635 17.0023 14.3383 16.6542 14.9848 16.0321C15.6312 15.41 15.9963 14.5648 16 13.682L15.2526 7.09683ZM4.81435 4.33959C4.81424 3.93776 4.89577 3.53984 5.05442 3.16856C5.21307 2.79729 5.44579 2.45997 5.73904 2.1758C6.03229 1.89162 6.38029 1.66614 6.76348 1.51234C7.14667 1.35854 7.55744 1.27947 7.97222 1.27947C8.38708 1.27909 8.79786 1.35804 9.18115 1.51186C9.56444 1.66567 9.91272 1.89122 10.2058 2.1757C10.4996 2.45956 10.7325 2.79684 10.8914 3.16818C11.0503 3.53951 11.132 3.93761 11.1317 4.33959V4.52521H4.81435V4.33959ZM5.43741 8.84029C5.33319 8.8404 5.22988 8.82059 5.13358 8.782C5.03727 8.74341 4.94981 8.68676 4.87612 8.61536C4.80243 8.54397 4.74404 8.45924 4.70421 8.36594C4.66438 8.27264 4.64394 8.17265 4.64405 8.07168C4.64394 7.97072 4.66438 7.87072 4.70421 7.77742C4.74404 7.68412 4.80243 7.5993 4.87612 7.5279C4.94981 7.45651 5.03727 7.39995 5.13358 7.36136C5.22988 7.32277 5.33319 7.30297 5.43741 7.30307C5.54177 7.30286 5.64515 7.32255 5.74164 7.36107C5.83813 7.39959 5.92579 7.45613 5.9997 7.52751C6.07361 7.5989 6.13234 7.68368 6.17241 7.77704C6.21247 7.8704 6.23306 7.97057 6.23317 8.07168C6.23306 8.17279 6.21247 8.27287 6.17241 8.36623C6.13234 8.45959 6.07361 8.54437 5.9997 8.61575C5.92579 8.68713 5.83813 8.74367 5.74164 8.7822C5.64515 8.82072 5.54177 8.8405 5.43741 8.84029ZM10.5644 8.84029C10.46 8.8405 10.3566 8.82072 10.2602 8.7822C10.1637 8.74367 10.076 8.68713 10.0021 8.61575C9.92819 8.54437 9.86946 8.45959 9.82939 8.36623C9.78933 8.27287 9.76873 8.17279 9.76863 8.07168C9.76873 7.97057 9.78933 7.8704 9.82939 7.77704C9.86946 7.68368 9.92819 7.5989 10.0021 7.52751C10.076 7.45613 10.1637 7.39959 10.2602 7.36107C10.3566 7.32255 10.46 7.30286 10.5644 7.30307C10.6686 7.30297 10.7717 7.32277 10.868 7.36136C10.9643 7.39995 11.052 7.45651 11.1257 7.5279C11.1994 7.5993 11.2578 7.68412 11.2976 7.77742C11.3374 7.87072 11.3579 7.97072 11.3578 8.07168C11.3579 8.17265 11.3374 8.27264 11.2976 8.36594C11.2578 8.45924 11.1994 8.54397 11.1257 8.61536C11.052 8.68676 10.9643 8.74341 10.868 8.782C10.7717 8.82059 10.6686 8.8404 10.5644 8.84029Z" fill="white" />
  </symbol>
</svg>
